<svg width="24" height="24" viewBox="0 0 24 24" fill="none" xmlns="http://www.w3.org/2000/svg">
<path d="M12 2L15.09 8.26L22 9.27L17 14.14L18.18 21.02L12 17.77L5.82 21.02L7 14.14L2 9.27L8.91 8.26L12 2Z" stroke="#006FEE" stroke-width="2" stroke-linecap="round" stroke-linejoin="round"/>
<path d="M11.9191 5.53149C11.6111 5.99347 11.3265 6.45569 11.0983 6.96283C10.9297 7.33749 10.9798 7.71442 10.8842 8.0968C10.7832 8.50077 10.8485 8.98274 10.8485 9.40127C10.8485 9.65634 10.8485 9.91142 10.8485 10.1665C10.8485 10.58 10.8543 10.0163 10.7732 9.88102C10.6714 9.71131 10.0596 8.40771 9.92074 8.47347C8.94637 8.93502 9.2489 10.4407 8.27925 10.9C8.02387 11.021 7.65759 10.9555 7.37922 10.9555C6.92152 10.9555 6.34722 11.0518 5.89633 10.9516C5.84329 10.9398 5.65766 10.7546 5.64258 10.7018C5.63022 10.6585 5.43243 10.3339 5.43243 10.4956C5.43243 10.6961 6.00551 11.0405 6.13819 11.1696C6.5712 11.5909 7.22193 11.8373 7.56557 12.3432C7.96694 12.9342 8.27925 13.8752 8.27925 14.5914C8.27925 15.0721 8.23686 15.4852 8.08101 15.9355C7.94162 16.3381 7.85104 16.5933 7.85104 17.0219C7.85104 17.2925 7.65667 17.6144 7.52988 17.8426C7.14812 18.5298 8.45958 16.5491 8.72333 15.8086C9.19638 14.4804 9.43376 13.0556 9.84937 11.7049C9.9914 11.2433 10.1461 10.7734 10.2776 10.3132C10.4534 9.698 11.0033 9.61729 11.475 9.31404C11.8103 9.09851 12.0325 8.95719 12.4543 8.95719C12.6706 8.95719 12.9589 8.94381 13.1323 9.09993C13.3172 9.26633 13.5735 9.52814 13.846 9.52814C13.9053 9.52814 13.681 9.33339 13.6557 9.31404C13.271 9.01938 12.8003 8.82365 12.3909 8.56467C12.334 8.52866 11.3095 7.8804 11.6732 7.67256C12.1988 7.37226 12.7293 7.60459 13.2037 7.85494C13.8206 8.18053 13.8217 8.75776 14.0998 9.35369C14.496 10.2027 15.307 10.4258 16.1615 10.6304C16.7666 10.7753 17.364 10.7414 17.9854 10.7414C18.2659 10.7414 18.9422 10.6089 18.7546 10.4004C18.5862 10.2133 17.811 10.9106 17.696 10.9952C16.9109 11.5724 16.0572 11.9774 15.3844 12.7041C14.9244 13.2008 14.5122 14.0906 14.3615 14.7539C14.1812 15.5473 14.3733 16.0975 14.7778 16.78C15.093 17.312 15.8613 18.6326 16.6254 18.3779C17.0483 18.2369 15.6976 17.9192 15.5985 17.8941C14.8102 17.6952 14.2868 17.4551 14.2742 16.5619C14.2648 15.8948 14.4757 15.0825 14.9205 14.5636C14.9695 14.5064 15.4145 14.3056 15.4875 14.3099C15.6628 14.3202 15.4875 15.2453 15.4875 15.3804C15.4875 15.6167 15.4736 15.858 15.4875 16.0941C15.4991 16.2913 15.6554 16.1067 15.4875 16.0227" stroke="#006FEE" stroke-width="3" stroke-linecap="round"/>
<path d="M13.846 11.5265C13.6487 11.383 13.3156 11.3379 13.0887 11.2371C12.5796 11.0108 12.0217 10.8153 11.5424 10.5313C11.4514 10.4774 10.8589 10.3299 11.1499 10.5273C11.9498 11.0702 13.0182 10.9906 13.8302 11.4868C14.3735 11.8189 12.6537 12.3315 12.49 12.3988C12.1005 12.559 11.7069 12.7339 11.364 12.9816C11.1298 13.1508 11.6128 13.0966 11.6931 13.0966C12.3394 13.0966 12.9856 13.0966 13.6319 13.0966C13.7798 13.0966 14.8452 13.141 14.7976 13.168C14.369 13.4109 13.641 13.3688 13.168 13.4178C12.6198 13.4745 11.8816 13.4032 11.3679 13.6279C11.3041 13.6558 12.3379 13.7991 12.4623 13.8182C12.5343 13.8293 13.9484 14.0092 13.5407 14.2742C13.1622 14.5203 12.6632 14.6598 12.2283 14.754C11.4018 14.9328 10.5769 15.1297 9.75422 15.3249C9.72005 15.333 9.05134 15.5376 9.17931 15.5945C9.46431 15.7212 9.82811 15.7012 10.1309 15.7729C10.5749 15.8781 11.0414 15.9763 10.4045 16.2368C10.3474 16.2602 9.50801 16.6659 9.78991 16.7364C10.7334 16.9723 11.851 16.8078 12.8151 16.8078C13.0275 16.8078 13.3564 16.7901 12.9341 16.8117C12.2165 16.8485 11.4988 16.9083 10.7811 16.9505C10.3239 16.9774 9.78901 16.9384 9.34187 17.0378C9.23497 17.0615 9.77682 16.8965 9.8811 16.8633C10.4465 16.6834 11.0034 16.5131 11.5781 16.3637C11.7794 16.3114 12.274 16.3138 12.3473 16.0941" stroke="#006FEE" stroke-width="3" stroke-linecap="round"/>
</svg>
